#!OML:ASF F:\VICON\USERDATA\INSTALL\rory3\rory3.ASF
:FULLY-SPECIFIED
:DEGREES
46
root -0.24389300833884547 16.864144254297077 14.84653655089438 3.6094076719942483 -2.7308325380738365 -5.31523164631313
lfemur -29.114313230870717 8.350796919214588 -9.163371236555301
ltibia 112.6411985696217
lfoot 5.518849801937053 -8.750413990798481
ltoes -0.05576344854754289
rfemur -18.42821990426863 7.910023769308323 36.768123050242494
rtibia 57.45875084781061
rfoot -26.926085446753167 -18.372133674556004
rtoes -2.189608701917586
lowerback 18.241197047615888 0.45523062588087554 3.7690439411239387
upperback -0.17504737360903166 1.6214153044713444 3.10596212003531
thorax -10.246423363185352 0.6769655876531573 0.6867612380321041
lowerneck -21.3911783178649 -3.964842112078069 -1.7628168255800696
upperneck 11.92098303860931 -5.267242588674902 2.360548988345102
head 7.277802283311937 -2.3687230967971042 0.4236453073335851
lclavicle -9.39114967817381e-16 -7.931302563822058e-16
lhumerus -52.386417501438046 -11.671467529336597 98.1498704939352
lradius 107.3943285193129
lwrist 36.0642906824003
lhand -24.178718082047368 2.4315377068386113
lfingers 7.125020000000057
lthumb 2.3041403819496242 32.33537094282222
rclavicle -9.39114967817381e-16 -7.931302563822058e-16
rhumerus -40.134414237156115 12.28448890583481 -97.56813957620139
rradius 111.2706300000848
rwrist -17.819170282042702
rhand -20.02469843048847 33.23930894962804
rfingers 7.125020000000057
rthumb 6.314984962372848 9.093374890320526
47
root -0.24810426957481413 16.92815097957732 15.380612445997834 3.8419366050101353 -1.6590321503380236 -5.457113720549528
lfemur -34.61984004828231 7.8158384564103685 -9.822949051893332
ltibia 112.17817671445196
lfoot 2.2985288605651406 -7.543326054458669
ltoes -2.013466066061759
rfemur -15.215751493684454 7.08253794616415 36.80575728828524
rtibia 55.77336896070854
rfoot -27.54691168822404 -19.1715585300594
rtoes -7.7800763517963
lowerback 17.964511301642737 0.6078863169609808 4.019399217142233
upperback -0.27164918721227216 1.8727244735206032 2.9693701877339604
thorax -10.234651744611552 0.7788015546886791 0.2668908045959675
lowerneck -21.41698138125666 -4.2959795168997275 -1.8311744001012746
upperneck 11.648075361661654 -5.734650257667872 2.5781624354611243
head 7.211466598956563 -2.575619274900618 0.4579193652324094
lclavicle -1.2829180712602231e-15 -1.0593385171525135e-15
lhumerus -54.659251459611134 -12.189868532640254 98.40092537848489
lradius 107.14343551337166
lwrist 35.93039764069368
lhand -23.794524892946917 2.346978067887859
lfingers 7.125020000000056
lthumb 2.6750713279365685 32.2413268662162
rclavicle -1.2829180712602231e-15 -1.0593385171525135e-15
rhumerus -37.914576188749045 12.423210322480035 -97.26581654065475
rradius 111.49002020208579
rwrist -18.1067779281764
rhand -20.00478084652234 33.2268889414313
rfingers 7.125020000000056
rthumb 6.334433985564947 8.73999890722181
48
root -0.23428329676395138 17.061587706807583 16.40952514477039 4.040019252676825 -0.4961687328847883 -5.299325011546969
lfemur -38.52492753959113 6.7759020794597244 -10.942381458318026
ltibia 110.22933180556036
lfoot 0.07944994202646605 -6.3058265402997264
ltoes -4.139162283494831
rfemur -11.397768853186893 5.921122056235539 36.65784601112769
rtibia 53.69599323590653
rfoot -25.854585345260165 -18.14493138209785
rtoes -12.038346288357184
lowerback 17.661157998394554 0.8029584407731438 4.358521958534041
upperback -0.3722918158105909 2.172380703030265 2.7625649054624106
thorax -10.13876969231487 0.8995810575736124 -0.16959105398907626
lowerneck -21.230181535155165 -4.611858067048816 -1.9036021258329345
upperneck 11.694765933801861 -6.167108101272429 2.7923249697026526
head 7.2166802506766485 -2.7756107127099456 0.4927337034351783
lclavicle -1.047207571207302e-15 -8.768276400336645e-16
lhumerus -56.352739219722096 -12.252781945819924 98.6311598648585
lradius 107.95922461345751
lwrist 36.186761474658866
lhand -23.428947238974718 2.327587435726537
lfingers 7.125020000000057
lthumb 3.028019497057281 32.21296365887827
rclavicle -1.047207571207302e-15 -8.768276400336645e-16
rhumerus -35.9236986075185 12.731213500371666 -96.62412520986743
rradius 112.90356087587864
rwrist -18.24872118954516
rhand -19.96519052438168 33.42586518677817
rfingers 7.125020000000057
rthumb 6.37308945845707 9.012700123556817
49
root -0.2188845540974642 17.244642046255624 17.462740811789423 4.164647300838434 0.643279835924923 -5.063001613712658
lfemur -41.42091404881353 5.369915237616747 -12.21790489299924
ltibia 106.64456519016372
lfoot -1.4842828370445182 -5.404054452389018
ltoes -6.5651091953909235
rfemur -7.224669622008961 4.6754562439604035 36.36185365497634
rtibia 50.67386626609518
rfoot -21.897448029402867 -15.866327986916168
rtoes -14.383160444571557
lowerback 17.268666229299846 1.003617861962092 4.763657668241719
upperback -0.49859040655986375 2.4751561960877124 2.503744690262354
thorax -10.01535909613844 1.018353625929599 -0.6769364351991148
lowerneck -20.91161645816705 -4.927555512259735 -1.9704597770599548
upperneck 11.949751507774607 -6.600122871880246 2.9702183179609847
head 7.269057118251702 -2.97982214109175 0.5143375154025807
lclavicle -7.363818242403459e-16 -6.361546145387781e-16
lhumerus -58.0388170906012 -11.918420009685834 98.66536849236722
lradius 109.04818569289323
lwrist 36.57930956603151
lhand -23.11334026175105 2.312852469513901
lfingers 7.125020000000058
lthumb 3.3327091159062316 32.1893592869695
rclavicle -7.363818242403459e-16 -6.361546145387781e-16
rhumerus -34.42655089547416 13.044044113191099 -96.05298972398626
rradius 114.73370656465531
rwrist -18.48422205233269
rhand -19.90044926867511 33.559403877996836
rfingers 7.125020000000058
rthumb 6.436056784559452 10.006450516628227
50
root -0.21530516751221201 17.458097414084275 18.092241868742796 4.162825016633187 1.770048350010772 -4.846861018024281
lfemur -43.67174727579594 3.6123151959762057 -13.585019600675892
ltibia 100.95991958748397
lfoot -2.7318347731470642 -5.162080636062988
ltoes -9.0534369002779
rfemur -3.0115492392408942 3.461457006190315 35.86556570346208
rtibia 46.578698208404354
rfoot -15.893575283741985 -12.967875303568757
rtoes -14.762275961126745
lowerback 16.693081707593052 1.1685677442233011 5.143393801645335
upperback -0.6807062466939489 2.714845140589758 2.1869329174195506
thorax -9.899205712327392 1.1073485301756734 -1.2680370615169068
lowerneck -20.52447510005112 -5.258593118785094 -2.0298634024123587
upperneck 12.334336298057433 -7.066677900354467 3.089296056192137
head 7.351944225112323 -3.1990470776841606 0.5133912275665447
lclavicle -7.527465913433462e-16 -6.48825884257999e-16
lhumerus -60.12243767808205 -11.312075316520113 98.38515260437113
lradius 109.69721785253256
lwrist 36.84698468653699
lhand -22.9415896153185 2.284455487143644
lfingers 7.125020000000057
lthumb 3.498497060631376 32.15379375494813
rclavicle -7.527465913433462e-16 -6.48825884257999e-16
rhumerus -33.6276397921087 13.127831887921907 -95.79589970635418
rradius 116.07345327390149
rwrist -18.95875877595076
rhand -19.75588732749497 33.283010159989765
rfingers 7.125020000000057
rthumb 6.57577995621328 11.660819121539399
51
root -0.21097601597005294 17.704978207744965 18.76969298854621 4.1358761142951534 2.9566180428813977 -4.606136172635612
lfemur -44.93458875944977 1.6629839974308342 -14.894653049102628
ltibia 93.1799233232279
lfoot -3.36101442811203 -5.625987992828422
ltoes -11.402834797016624
rfemur 1.4149199754631763 2.5292197406220884 35.33577635299496
rtibia 42.16344293966852
rfoot -7.624914516791003 -9.771225955672424
rtoes -12.889988674990844
lowerback 15.916478166977964 1.3131065491594196 5.524451435872549
upperback -0.9117274468355612 2.9096751864349755 1.8363312649006933
thorax -9.731626237555133 1.1763409956316337 -1.8703101633327561
lowerneck -20.051067217037218 -5.582435226605407 -2.0781824243293885
upperneck 12.918336200288227 -7.536040393783161 3.1950392127846525
head 7.487152165301443 -3.418632085615913 0.5062813112030515
lclavicle -7.697436833879106e-16 -6.61986485098516e-16
lhumerus -62.49546542707145 -10.264809563040131 97.89527272375402
lradius 110.58360670169856
lwrist 37.20922353880128
lhand -22.918758305864934 2.4965892191650063
lfingers 7.125020000000057
lthumb 3.5205120281312468 32.3623076107679
rclavicle -7.697436833879106e-16 -6.61986485098516e-16
rhumerus -33.32216924640512 13.26800685155759 -95.71518721811861
rradius 117.40027739942303
rwrist -19.40637311578865
rhand -19.408936352181367 32.57632234331128
rfingers 7.125020000000057
rthumb 6.9101497999280435 14.172640970204732
52
root -0.2133878797057711 17.975811973306186 19.529186496282257 4.146861794479305 4.124088218293606 -4.355737797835449
lfemur -45.37145859627171 -0.2968479784369653 -16.106883338810704
ltibia 83.35174108734049
lfoot -3.3580086889861747 -6.936939974984012
ltoes -13.625950791700141
rfemur 5.861826170493037 2.0790133067980427 34.838445639297404
rtibia 37.65064312466828
rfoot 2.554486809623421 -6.559633167490293
rtoes -8.833178975441232
lowerback 14.905813812639042 1.4537144155374895 5.879285516883179
upperback -1.2046380533345482 3.07874801932101 1.4533070441669445
thorax -9.515745607383746 1.2361516703798316 -2.481691910391825
lowerneck -19.528284663897328 -5.90134108217442 -2.12612037813337
upperneck 13.655487151808948 -8.012432346777114 3.2957382485616056
head 7.665224114952814 -3.638994633743628 0.49731207587770504
lclavicle -8.603928253220796e-16 -7.32175922998699e-16
lhumerus -65.38374818404395 -8.89203009662544 97.28015328380923
lradius 111.995491845521
lwrist 37.80555007678495
lhand -23.03034812527701 2.8287567285070434
lfingers 7.125020000000057
lthumb 3.4127718402966316 32.69508759830668
rclavicle -8.603928253220796e-16 -7.32175922998699e-16
rhumerus -33.562030506941504 13.682687603421432 -95.92985401913978
rradius 118.89392334722282
rwrist -19.91018994253399
rhand -18.733967299372217 31.122734750604458
rfingers 7.125020000000057
rthumb 7.5598783320277025 17.72652305026219
